<?xml version="1.0" encoding="utf-8"?>
<svg id="master-artboard" viewBox="0 0 3000 1500" version="1.1" xmlns="http://www.w3.org/2000/svg" x="0px" y="0px" width="3000px" height="1500px" enable-background="new 0 0 2800 2800"><rect id="ee-background" x="0" y="0" width="3000" height="1500" style="fill: white; fill-opacity: 0; pointer-events: none;"/>
<g transform="matrix(1.23801052570343, 0, 0, 0.6190049648284911, -133.01935258947105, -6.839829630783697)">
		<path d="M 0 0 H 2800 V 2800 H 0 V 0 Z" fill="#EFEEEC"/>
	</g>
<g transform="matrix(0.6190049052238463, 0, 0, 0.6190049052238463, -133.01935258947105, -6.83970946781983)">
		<g>
			<path fill="#B9CED1" d="M885.7,1110.6c58.8-72,134.1-247.5,134.1-247.5l-10.1-7.5c0,0-90.4,162-129,196.5&#10;&#9;&#9;&#9;&#9;c-38.6,34.5-87.7,25.5-87.7-64.5C793,550.9,793,0,793,0h-94c0,0,0,156.6,0,378.6c0,59.1-33.5,65-58.8,42.4&#10;&#9;&#9;&#9;&#9;c-25.4-22.7-163.4-284.7-163.4-284.7l-6.7,4.9c0,0,40.7,81,81.5,162.4c12.9,25.3,5.9,32.6-13.2,28.7&#10;&#9;&#9;&#9;&#9;c-19.1-3.9-88.4-28.7-88.4-28.7v7.7c0,0,91.1,30.9,106.5,36.1c15.5,5.3,29.2,25.1,32.1,30.6c18,36.2,33.3,66.4,40.3,81.1&#10;&#9;&#9;&#9;&#9;c35.1,73.3,70.1,167.3,70.1,251c0,201.5,0,417.3,0,606c0,90-49.8,99-88.4,64.5c-38.6-34.5-97.9-159-97.9-159l-10.1,7.5&#10;&#9;&#9;&#9;&#9;c0,0,52.5,129.5,102.8,210c49.3,78.8,88.1,172,88.1,299.5c-15.1,322-58.7,381.5-58.7,381.5H843c0,0-50-462.2-50-624.2&#10;&#9;&#9;&#9;&#9;c0-18.8,0-53.6,0-100.2C793,1268.2,826.9,1182.6,885.7,1110.6z"/>
		</g>
		<g>
			<path fill="#B9CED1" d="M2385,1129c-19.1,3.9-25.8-3.4-12.9-28.7l-0.7,0.8c40.9-81.7,81.9-163.2,81.9-163.2l-6.6-4.9&#10;&#9;&#9;&#9;&#9;c0,0-137.8,262.1-163.2,284.7c-24.7,22.1-56.5,17-58.5-37.7C2225,735,2225,0,2225,0h-94c0,0,0,156.6,0,378.6&#10;&#9;&#9;&#9;&#9;c0,59.1-33.3,65-58.7,42.4S1909,136.2,1909,136.2l-6.6,5.2c0,0,40.7,80.6,81.5,162.6h0c12.9,25,6.3,32.4-12.8,28.5&#10;&#9;&#9;&#9;&#9;c-19.1-3.9-88-28.9-88-28.9v7.7c0,0,90.7,30.9,106.1,36.2c15.5,5.3,29,24.6,32,30.6c0,0-0.1,0-0.1,0c18,36,33.1,66.4,40.1,81&#10;&#9;&#9;&#9;&#9;c35.1,73.3,69.9,167.2,69.9,251c0,270.6,0,566.9,0,788.8c0,534.1-64,621.2-64,621.2h208.2c0,0-49.5-454.4-50.4-620&#10;&#9;&#9;&#9;&#9;c1.8-82,35.6-172.8,69.7-244.2c6.9-14.5,21.6-44.1,39.3-79.7c0.4-0.3,0.8-0.8,1.1-1.4c2.9-5.5,16.4-25.3,31.8-30.6&#10;&#9;&#9;&#9;&#9;c15.5-5.3,106.2-36.1,106.2-36.1v-7.7C2473,1100.3,2404.1,1125.1,2385,1129z"/>
		</g>
		<g>
			<path fill="#B9CED1" d="M1692.5,1229l-10.1-7.5c0,0-59.4,124.5-98,159c-38.6,34.5-88.4,25.5-88.4-64.5c0-545.1,0-1316,0-1316h-94&#10;&#9;&#9;&#9;&#9;c0,0,0,181.4,0,418.4c0,90-49,99-87.7,64.5c-38.6-34.5-129.1-196.5-129.1-196.5l-10,7.5c0,0,75.3,175.5,134,247.5&#10;&#9;&#9;&#9;&#9;c58.8,72,92.7,157.6,92.7,285.1c0,307.3,0,598.9,0,669.3c0,162-50.1,624.2-50.1,624.2h208.2c0,0-43.6-59.5-58.7-381.5&#10;&#9;&#9;&#9;&#9;c0-127.5,38.9-220.7,88.1-299.5C1639.9,1358.5,1692.5,1229,1692.5,1229z"/>
		</g>
	</g><path fill="#B9CED1" d="M2104.9,2030.6c-522.1,101.9-774.1,73.1-1302.1-20.5c-385.2-68.3-674.5-26-802.8,1.8v788h2800v-810.1&#10;&#9;&#9;&#9;C2599.6,1979.9,2347.5,1983.3,2104.9,2030.6z" transform="matrix(1.155422568321228, 0, 0, 0.5777112245559692, -117.59156799316418, 60.412470522192535)"/>

<g transform="matrix(0.6190049052238463, 0, 0, 0.6190049052238463, -133.01935258947105, -6.83970946781983)">
		<path fill="#749199" d="M1419.7,332.2c-19.1,3.9-25.9-3.4-13-28.7c40.7-81.4,81.5-162.4,81.5-162.4l-6.6-4.9&#10;&#9;&#9;&#9;c0,0-138,262.1-163.3,284.7c-23.5,21-54.2,17.4-58.2-30.3c0-223.3,0-390.6,0-390.6h-94c0,0,0,771,0,1316c0,90-49.5,99-88.1,64.5&#10;&#9;&#9;&#9;S829.4,947,829.4,947l-10.1,7.6c0,0,61.1,121.4,124.5,244.4h0c19.6,38,8.7,52.5-20.4,46.5c-29.1-6-134.5-43.8-134.5-43.8v11.7&#10;&#9;&#9;&#9;c0,0,138.5,47,162.1,55c23.5,8,50,40.4,54.5,48.8c0,0,0,0,0,0c28.9,54.7,53.7,100.1,67.3,121.8c49.3,78.8,88.1,172,88.1,299.5&#10;&#9;&#9;&#9;l0.3-1c-14.8,348.7-59,469.5-59,469.5h208.2c0,0-50.6-549.2-50.6-711.2c0-80.6,0-451.4,0-803.6c5-79.1,36.7-165.1,69.4-233.3&#10;&#9;&#9;&#9;c7-14.6,22-44.9,40.1-81.1c2.9-5.5,16.7-25.3,32.1-30.6c15.5-5.3,106.4-36.1,106.4-36.1v-7.7&#10;&#9;&#9;&#9;C1508,303.5,1438.8,328.3,1419.7,332.2z"/>
		<path fill="#749199" d="M562.7,710L562.7,710c2.9-83.7,40.8-177.7,78.5-251c27.6-53.8,169.7-317.9,169.7-317.9l-6.4-4.9&#10;&#9;&#9;&#9;c0,0-147,262.1-173.1,284.7c-26.2,22.7-59.2,16.7-57.1-42.4l0,0C581.9,156.6,587.3,0,587.3,0h-94c0,0-36.9,1064.1-48.7,1406.8&#10;&#9;&#9;&#9;c-8.8,47.2-40.6,49.8-65.4,26.9c-28.1-25.9-175.4-325.6-175.4-325.6l-7.8,5.6c0,0,40.6,92.8,84.3,185.6h0&#10;&#9;&#9;&#9;c13.7,28.9,8.2,37.3-13.5,32.8c-21.7-4.5-99.8-32.8-99.8-32.8l-0.3,8.8c0,0,102.7,35.3,120.2,41.3s29.4,24.7,32.5,31c0,0,0,0,0,0&#10;&#9;&#9;&#9;c22.2,44.6,42.2,81.6,54.4,97.2c30,38.4,50.5,82,58.7,138.3c-19.6,201.3-63,504-63,504h208.2c0,0-60.8-87.1-42.3-621.1&#10;&#9;&#9;&#9;C543.1,1276.9,553.4,980.6,562.7,710z"/>
		<path fill="#749199" d="M1942.8,1505.9c2.3-52.9,146.2-151.9,146.2-151.9l-4.5-6.5c0,0-88,64-111.5,81.5&#10;&#9;&#9;&#9;c-22.7,16.9-26.3-7-25.8-23.4c19.1-433.2,49.2-1109.1,62.4-1405.6h-84c-2.4,54.3-5.4,121-8.7,196l-0.8,0.1&#10;&#9;&#9;&#9;c-2.6,59.1-32.7,65-54.4,42.4c-15.9-16.6-80.2-162.1-113.4-238.4h-9.3c31,76.5,95.5,236,111,276.5c28.2,73.3,55.2,167.3,51.5,251&#10;&#9;&#9;&#9;l0.8-3.5c-18.9,425.9-40.5,912.6-44.4,1000.7c-7.1,162-72.3,711.3-72.3,711.3h186c0,0-53.2-174.2-29.8-708.3&#10;&#9;&#9;&#9;C1942.2,1520.5,1942.5,1513.3,1942.8,1505.9z"/>
		<path fill="#749199" d="M2767.1,2149c0,0-69.3-491.3-76.8-663.5c-4.5-101.7-28.3-638.2-46.3-1060.2v0c-4-89,24.8-188.9,54.7-266.8&#10;&#9;&#9;&#9;c9.5-24.7,36-91,63.2-158.4h-15.4c-26.3,57.4-51,108.3-60.3,118c-23,24.1-55,17.8-57.8-45c-1.2-26.9-2.2-51.4-3.2-72.9h-89.3&#10;&#9;&#9;&#9;c11,250.5,39.3,897.5,59.4,1356.9c0.8,17.4-2.4,45.2-27.4,26.6c-25-18.6-118.5-86.6-118.5-86.6l-4.8,6.9&#10;&#9;&#9;&#9;c0,0,153,105.2,155.5,161.5c0.3,7.8,0.7,15.7,1,23.3c24.8,567.7-31.7,660.3-31.7,660.3H2767.1z"/>
	</g><g transform="matrix(0.6190049052238463, 0, 0, 0.6190049052238463, 1604.588435496466, -7.932942576340224)">
		<g>
			<path fill="#B9CED1" d="M885.7,1110.6c58.8-72,134.1-247.5,134.1-247.5l-10.1-7.5c0,0-90.4,162-129,196.5&#10;&#9;&#9;&#9;&#9;c-38.6,34.5-87.7,25.5-87.7-64.5C793,550.9,793,0,793,0h-94c0,0,0,156.6,0,378.6c0,59.1-33.5,65-58.8,42.4&#10;&#9;&#9;&#9;&#9;c-25.4-22.7-163.4-284.7-163.4-284.7l-6.7,4.9c0,0,40.7,81,81.5,162.4c12.9,25.3,5.9,32.6-13.2,28.7&#10;&#9;&#9;&#9;&#9;c-19.1-3.9-88.4-28.7-88.4-28.7v7.7c0,0,91.1,30.9,106.5,36.1c15.5,5.3,29.2,25.1,32.1,30.6c18,36.2,33.3,66.4,40.3,81.1&#10;&#9;&#9;&#9;&#9;c35.1,73.3,70.1,167.3,70.1,251c0,201.5,0,417.3,0,606c0,90-49.8,99-88.4,64.5c-38.6-34.5-97.9-159-97.9-159l-10.1,7.5&#10;&#9;&#9;&#9;&#9;c0,0,52.5,129.5,102.8,210c49.3,78.8,88.1,172,88.1,299.5c-15.1,322-58.7,381.5-58.7,381.5H843c0,0-50-462.2-50-624.2&#10;&#9;&#9;&#9;&#9;c0-18.8,0-53.6,0-100.2C793,1268.2,826.9,1182.6,885.7,1110.6z"/>
		</g>
		<g>
			<path fill="#B9CED1" d="M2385,1129c-19.1,3.9-25.8-3.4-12.9-28.7l-0.7,0.8c40.9-81.7,81.9-163.2,81.9-163.2l-6.6-4.9&#10;&#9;&#9;&#9;&#9;c0,0-137.8,262.1-163.2,284.7c-24.7,22.1-56.5,17-58.5-37.7C2225,735,2225,0,2225,0h-94c0,0,0,156.6,0,378.6&#10;&#9;&#9;&#9;&#9;c0,59.1-33.3,65-58.7,42.4S1909,136.2,1909,136.2l-6.6,5.2c0,0,40.7,80.6,81.5,162.6h0c12.9,25,6.3,32.4-12.8,28.5&#10;&#9;&#9;&#9;&#9;c-19.1-3.9-88-28.9-88-28.9v7.7c0,0,90.7,30.9,106.1,36.2c15.5,5.3,29,24.6,32,30.6c0,0-0.1,0-0.1,0c18,36,33.1,66.4,40.1,81&#10;&#9;&#9;&#9;&#9;c35.1,73.3,69.9,167.2,69.9,251c0,270.6,0,566.9,0,788.8c0,534.1-64,621.2-64,621.2h208.2c0,0-49.5-454.4-50.4-620&#10;&#9;&#9;&#9;&#9;c1.8-82,35.6-172.8,69.7-244.2c6.9-14.5,21.6-44.1,39.3-79.7c0.4-0.3,0.8-0.8,1.1-1.4c2.9-5.5,16.4-25.3,31.8-30.6&#10;&#9;&#9;&#9;&#9;c15.5-5.3,106.2-36.1,106.2-36.1v-7.7C2473,1100.3,2404.1,1125.1,2385,1129z"/>
		</g>
		<g>
			<path fill="#B9CED1" d="M1692.5,1229l-10.1-7.5c0,0-59.4,124.5-98,159c-38.6,34.5-88.4,25.5-88.4-64.5c0-545.1,0-1316,0-1316h-94&#10;&#9;&#9;&#9;&#9;c0,0,0,181.4,0,418.4c0,90-49,99-87.7,64.5c-38.6-34.5-129.1-196.5-129.1-196.5l-10,7.5c0,0,75.3,175.5,134,247.5&#10;&#9;&#9;&#9;&#9;c58.8,72,92.7,157.6,92.7,285.1c0,307.3,0,598.9,0,669.3c0,162-50.1,624.2-50.1,624.2h208.2c0,0-43.6-59.5-58.7-381.5&#10;&#9;&#9;&#9;&#9;c0-127.5,38.9-220.7,88.1-299.5C1639.9,1358.5,1692.5,1229,1692.5,1229z"/>
		</g>
	</g><path fill="#749199" d="M0,2800h2800v-735.8c-36.8,0-78.8,0-127,0c-336,0-673.1,115.4-791.6,115.4s-454.6,0-570.8,0&#10;&#9;&#9;s-288.8-87.4-467.6-87.4s-367.3-53-526.3-53c-91.6,0-222.4,0-316.7,0V2800z" transform="matrix(1.155422568321228, 0, 0, 0.5777112245559692, -117.59160614013683, 60.412470522192535)"/>
<g transform="matrix(0.6324618458747865, 0, 0, 0.6324618458747865, 1584.8488114730294, -7.932849116257216)">
		<path fill="#749199" d="M1419.7,332.2c-19.1,3.9-25.9-3.4-13-28.7c40.7-81.4,81.5-162.4,81.5-162.4l-6.6-4.9&#10;&#9;&#9;&#9;c0,0-138,262.1-163.3,284.7c-23.5,21-54.2,17.4-58.2-30.3c0-223.3,0-390.6,0-390.6h-94c0,0,0,771,0,1316c0,90-49.5,99-88.1,64.5&#10;&#9;&#9;&#9;S829.4,947,829.4,947l-10.1,7.6c0,0,61.1,121.4,124.5,244.4h0c19.6,38,8.7,52.5-20.4,46.5c-29.1-6-134.5-43.8-134.5-43.8v11.7&#10;&#9;&#9;&#9;c0,0,138.5,47,162.1,55c23.5,8,50,40.4,54.5,48.8c0,0,0,0,0,0c28.9,54.7,53.7,100.1,67.3,121.8c49.3,78.8,88.1,172,88.1,299.5&#10;&#9;&#9;&#9;l0.3-1c-14.8,348.7-59,469.5-59,469.5h208.2c0,0-50.6-549.2-50.6-711.2c0-80.6,0-451.4,0-803.6c5-79.1,36.7-165.1,69.4-233.3&#10;&#9;&#9;&#9;c7-14.6,22-44.9,40.1-81.1c2.9-5.5,16.7-25.3,32.1-30.6c15.5-5.3,106.4-36.1,106.4-36.1v-7.7&#10;&#9;&#9;&#9;C1508,303.5,1438.8,328.3,1419.7,332.2z"/>
		<path fill="#749199" d="M562.7,710L562.7,710c2.9-83.7,40.8-177.7,78.5-251c27.6-53.8,169.7-317.9,169.7-317.9l-6.4-4.9&#10;&#9;&#9;&#9;c0,0-147,262.1-173.1,284.7c-26.2,22.7-59.2,16.7-57.1-42.4l0,0C581.9,156.6,587.3,0,587.3,0h-94c0,0-36.9,1064.1-48.7,1406.8&#10;&#9;&#9;&#9;c-8.8,47.2-40.6,49.8-65.4,26.9c-28.1-25.9-175.4-325.6-175.4-325.6l-7.8,5.6c0,0,40.6,92.8,84.3,185.6h0&#10;&#9;&#9;&#9;c13.7,28.9,8.2,37.3-13.5,32.8c-21.7-4.5-99.8-32.8-99.8-32.8l-0.3,8.8c0,0,102.7,35.3,120.2,41.3s29.4,24.7,32.5,31c0,0,0,0,0,0&#10;&#9;&#9;&#9;c22.2,44.6,42.2,81.6,54.4,97.2c30,38.4,50.5,82,58.7,138.3c-19.6,201.3-63,504-63,504h208.2c0,0-60.8-87.1-42.3-621.1&#10;&#9;&#9;&#9;C543.1,1276.9,553.4,980.6,562.7,710z"/>
		<path fill="#749199" d="M1942.8,1505.9c2.3-52.9,146.2-151.9,146.2-151.9l-4.5-6.5c0,0-88,64-111.5,81.5&#10;&#9;&#9;&#9;c-22.7,16.9-26.3-7-25.8-23.4c19.1-433.2,49.2-1109.1,62.4-1405.6h-84c-2.4,54.3-5.4,121-8.7,196l-0.8,0.1&#10;&#9;&#9;&#9;c-2.6,59.1-32.7,65-54.4,42.4c-15.9-16.6-80.2-162.1-113.4-238.4h-9.3c31,76.5,95.5,236,111,276.5c28.2,73.3,55.2,167.3,51.5,251&#10;&#9;&#9;&#9;l0.8-3.5c-18.9,425.9-40.5,912.6-44.4,1000.7c-7.1,162-72.3,711.3-72.3,711.3h186c0,0-53.2-174.2-29.8-708.3&#10;&#9;&#9;&#9;C1942.2,1520.5,1942.5,1513.3,1942.8,1505.9z"/>
		<path fill="#749199" d="M2767.1,2149c0,0-69.3-491.3-76.8-663.5c-4.5-101.7-28.3-638.2-46.3-1060.2v0c-4-89,24.8-188.9,54.7-266.8&#10;&#9;&#9;&#9;c9.5-24.7,36-91,63.2-158.4h-15.4c-26.3,57.4-51,108.3-60.3,118c-23,24.1-55,17.8-57.8-45c-1.2-26.9-2.2-51.4-3.2-72.9h-89.3&#10;&#9;&#9;&#9;c11,250.5,39.3,897.5,59.4,1356.9c0.8,17.4-2.4,45.2-27.4,26.6c-25-18.6-118.5-86.6-118.5-86.6l-4.8,6.9&#10;&#9;&#9;&#9;c0,0,153,105.2,155.5,161.5c0.3,7.8,0.7,15.7,1,23.3c24.8,567.7-31.7,660.3-31.7,660.3H2767.1z"/>
	</g><g opacity="0.3" transform="matrix(1.23801052570343, 0, 0, 0.6190049648284911, -133.01935258947105, -6.839829630783697)">
		<path d="M 2800 0 L 2459 0 L 0 2459 L 0 2800 L 384.1000061035156 2800 L 2800 384.1000061035156 Z" fill="#FFFFFF"/>
		<path d="M 602.2999877929688 2800 L 1135.9000244140625 2800 L 2800 1135.9000244140625 L 2800 602.2999877929688 Z" fill="#FFFFFF"/>
		<path d="M 1854.699951171875 0 L 0 1854.699951171875 L 0 2161.199951171875 L 2161.199951171875 0 Z" fill="#FFFFFF"/>
	</g><path fill="#749199" d="M1256.9,1325.4l-4.6,22.7l23.5,86.7l29.7,50.5l-14-11l-15.6-30.7l-2,2.1l8.9,29.7l18.5,22.4l26.1,11.2&#10;&#9;&#9;l57.8,35.6l10,13.5l-3.6,3.8l-27.2-15.9l-39.3-9.5l-5,2.8l5,17.1l22,28.4l17.1,5.9h14l10.2,7.1c0,0,0.7,6,4.3,9.9l1.5,21.9l5,28.4&#10;&#9;&#9;v60.8l12.6,64l43.7,51.2l51.2,67.2l34.8,46.9l21.3,19l11,41.6l2.3,33.2l3.7,26.5l3.4,14.6l-0.2,71.4l-1.6,30.6l-3.9,12.3&#10;&#9;&#9;l-12.8,12.6l-9.6,10.3l-0.5,6.2l5.3,2.7h20.4l13.7-3.2l2.7,5.5l13,5l14-3.4l10.1-7.3l1.1-13.1l7.3-13v-6.9l-9.8-24.7l-4-27v-46.9&#10;&#9;&#9;l5.2-35.1l6.2-25.6l5.4-14l5-36v-21.6l9.5-8.3l46.9,4.3l25.6,0.2l40,4.7l48.1-11.4l15.6,2.4l22.2,16l32,31.3l39.4,25.6l10.3,19.2&#10;&#9;&#9;v22.4l-11.4,55.1l-9.6,32.7l-7.8,32l-16.2,21.9l5.9,6.6h23.3l9.6-8l-2-8.4l3.7-10.5l10.7-2.5v-18.5l7.2-40l13-41.9l5-12.8l2.1,24.4&#10;&#9;&#9;l1.4,58.5l-1.4,20.1l-7.3,24.9l-7.6,11.8l4,2.6l3.6,2.3l10.4,1.5l16.3-2.7l3.8-8.3l1.2-12l8.8-5.7l-1.5-8.9l-4.4-9.1l-2-49&#10;&#9;&#9;l0.5-41.8l-1.8-27.7l2.7-33.3l-2.6-10l-10.2-12.9l-19-34l-2.8-16.6l2.6-21.8l26.1-51.8l5.3-32.3l10.3-35.5v-12.4l-25.6-32.7&#10;&#9;&#9;l-28.4-20.3l-50.8-13.9l-19.2-10l-28.1-1.1l-45.5,6.4l-114.8-1.1l-45.5-14.6l-55.1-16.3l-43.4-13.9l-34.5-30.9l-26.7-36.2l-6-12.4&#10;&#9;&#9;l4.5-7l2.3-9.1l10.7-5.6l13.4-5.2l13.7-13.7l6.9-26.5v-8.8l-5-4.4l-8.8,3.9l-26.1,11.8l-13,13l-6,7.2l-4.3-1.2l10.3-15.8l12.4-10.8&#10;&#9;&#9;l62.7-42.6l15.3-23.5l13.4-28.8l6.4-34.6l2.6-37.9l7-23.6l1.1-16.7l-1.8-16.9h-2.1l-4.1,23.8l-6.6,20.6l-6.4,3l-5.9-3.2l-24.2-20.1&#10;&#9;&#9;l-13.7-17.6l-5.5-10.3l-1.8,3l9.1,21.3l11.2,16l17.6,16.7l5,8.9l1.8,14.7l0.5,23.1l-8,37.8l-18.3,25.9l-13,12.6l-34.7,25.2&#10;&#9;&#9;l-25.9,17.8l-8,5.2l-4.4-0.4l-6.4-8.2l-0.4-20.6l1.2-17.8h-2l-5.3,18.7l-2.1,24.7l6.2,14l0.7,4.3l-12.3,8l-7.3,3.7h-12.3l-14.4-5.7&#10;&#9;&#9;l-7.1-4.4l-18.7-27.9l-14.4-26.7l-7.6-22.9l-2-8.2l-2.1,0.4l0.7,20.6l9.2,27l9.4,19.4l-44.6-29.1l-13-12.1l-19.5-27l-11.2-21.1&#10;&#9;&#9;l-6.4-27.9l0.4-27.4l6.4-11.7l21.3-20.8l9.4-14.7l1.6-8h-2.5l-12.6,15.5l-17.9,15.6l-15.6,13.5h-5.2l-4.3-8.7l-4.1-15.5l-2.7-18.5&#10;&#9;&#9;H1256.9z" transform="matrix(0.5357142090797424, 0, 0, 0.5357141494750977, -0.00002833775397448335, 178.0040243464787)"/><path d="M 264.79998779296875 2800 L 2800 264.79998779296875 L 2800 21.600000381469727 L 21.600000381469727 2800 Z" opacity="0.3" fill="#FFFFFF" transform="matrix(1.2476350069046018, 0, 0, 0.6190049052238463, -146.59775224767418, -6.839739985397955)"/>
<g transform="matrix(0.6190049052238463, 0, 0, 0.6190049052238463, -133.01935258947105, -6.83970946781983)">
		<path fill="#46616A" d="M2053.1,757.7l-9-7.5c0,0-187.3,399-221.8,433.5s-78.3,25.5-78.3-64.5c0-120.3,0-256.8,0-392&#10;&#9;&#9;&#9;c0-83.7,31-177.7,62.3-251c23-53.8,141.7-317.9,141.7-317.9l-6-4.9c0,0-123,262.1-145.7,284.7s-52.4,16.7-52.4-42.4&#10;&#9;&#9;&#9;c0-225.8,0-395.7,0-395.7h-84c0,0,0,327,0,705.7c0,59.1-29.9,65-52.5,42.4c-22.7-22.7-145.9-284.7-145.9-284.7l-6,4.9&#10;&#9;&#9;&#9;c0,0,118.9,264,141.9,317.9c31.4,73.3,62.5,167.3,62.5,251c0,166.4,0,327.6,0,461.8c0,534.1-57.3,822.2-57.3,822.2h186&#10;&#9;&#9;&#9;c0,0-42.2-621.3-44.9-808.1c2.2-119.6,32.3-201.5,82.8-270.8C1879.1,1170.2,2053.1,757.7,2053.1,757.7z"/>
		<path fill="#46616A" d="M431,917c-26,6-32.3-5.2-14.8-43.7l0,0C472,749.7,524.1,626.1,524.1,626.1l-9-7.5&#10;&#9;&#9;&#9;c0,0-187.3,399-221.8,433.5c-34.5,34.5-78.3,25.5-78.3-64.5C215,550.9,215,0,215,0h-84c0,0,0,156.6,0,378.6&#10;&#9;&#9;&#9;c0,59.1-29.9,65-52.5,42.4c-11-11-45.7-78.2-78.5-144.6v28.5C29.1,370,58.3,435.2,68.5,459C99.9,532.3,131,626.3,131,710&#10;&#9;&#9;&#9;c0,270.6,0,566.9,0,788.8c0,534.1-57.3,822.2-57.3,822.2h186c0,0-44.7-663.2-44.7-825.2c0-18.8,0-53.6,0-100.2&#10;&#9;&#9;&#9;c0-127.5,30.3-213.2,82.8-285.2c15.2-20.8,40.4-69.5,68.7-129.5c0,0,0,0,0,0c4-8,18.9-33.1,40-41.1c21-8,144.6-54.9,144.6-54.9&#10;&#9;&#9;&#9;v-11.7C551,873.3,457,911,431,917z"/>
		<path fill="#46616A" d="M2665.7,917c-29.1,6-36.1-5.2-16.5-43.7c62.5-123.7,120.8-247.2,120.8-247.2l-10.1-7.5&#10;&#9;&#9;&#9;c0,0-209.7,399-248.3,433.5c-38.6,34.5-87.6,25.5-87.6-64.5c0-436.7,0-987.6,0-987.6h-95c0,0,0,156.6,0,378.6&#10;&#9;&#9;&#9;c0,59.1-33,65-58.4,42.4s-163.1-284.7-163.1-284.7l-6.6,4.9c0,0,40.8,81,81.5,162.4c12.9,25.3,6,32.6-13.1,28.7&#10;&#9;&#9;&#9;c-19.1-3.9-88.3-28.7-88.3-28.7v7.7c0,0,91,30.9,106.5,36.1c15.5,5.3,29.2,25.1,32.1,30.6c18,36.2,32.8,66.4,39.8,81.1&#10;&#9;&#9;&#9;c35.1,73.3,69.6,167.3,69.6,251c0,201.5,0,417.3,0,606c0,90-49.3,99-88,64.5S1992.6,947,1992.6,947l-10,7.6&#10;&#9;&#9;&#9;c0,0,61.1,121.4,124.5,244.4h0c19.6,38,9.1,52.5-20,46.5s-134.1-43.8-134.1-43.8v11.7c0,0,138.2,47,161.7,55s49.9,40.4,54.3,48.8&#10;&#9;&#9;&#9;c0,0,0,0,0,0c28.9,54.7,53.7,100.1,67.3,121.8c49.3,78.8,88.1,172,88.1,299.5l0.7-1.8c-14.4,381.2-59.4,584.3-59.4,584.3h208.2&#10;&#9;&#9;&#9;c0,0-49.9-663.2-49.9-825.2c0-18.8,0-53.6,0-100.2c0-127.5,33.8-213.2,92.6-285.2c17-20.8,45.2-69.5,76.8-129.5h-0.1&#10;&#9;&#9;&#9;c4.5-8,21.2-33.1,44.7-41.1S2800,885,2800,885v-11.7C2800,873.3,2694.8,911,2665.7,917z"/>
		<g>
			<path fill="#46616A" d="M961.2,498.5L961.2,498.5c-3.7-83.7,23.4-177.7,51.5-251c13.8-35.9,66-165.3,99.3-247.5h-10.2&#10;&#9;&#9;&#9;&#9;c-34.8,79.3-86.7,194.8-100.8,209.5c-21.7,22.7-51.8,16.7-54.4-42.4h0C942.2,64.6,939.4,0,939.4,0h-84c0,0,9.7,222,22.4,512&#10;&#9;&#9;&#9;&#9;c2.6,59.1-26.9,65-50.5,42.4C803.6,531.7,669,269.6,669,269.6l-5.7,4.9c0,0,130.3,264,155.6,317.9c34.6,73.3,69.7,167.3,73.3,251&#10;&#9;&#9;&#9;&#9;c8,182.7,16.2,369.5,23.3,531.6c0.7,16.4-2.3,42.5-25.8,25c-23.5-17.5-111.5-81.5-111.5-81.5l-4.5,6.5c0,0,143.9,99,146.2,151.9&#10;&#9;&#9;&#9;&#9;c0.3,7.4,0.6,14.7,1,21.9c23.4,534.1-29.8,822.2-29.8,822.2h186c0,0-65.2-663.2-72.3-825.2&#10;&#9;&#9;&#9;&#9;C1000.6,1400.1,978.6,895.5,961.2,498.5z"/>
		</g>
	</g>
<path fill="#46616A" d="M2104.9,2194c-522.1,80.3-774.1,57.6-1302.1-16.2c-385.2-53.8-674.5-20.5-802.8,1.4V2800h2800v-638&#10;&#9;&#9;C2599.6,2154.1,2347.5,2156.7,2104.9,2194z" transform="matrix(1.155422568321228, 0, 0, 0.5777112245559692, -117.59156799316418, 60.412470522192535)"/><g transform="matrix(0.6190049052238463, 0, 0, 0.6190049052238463, 1604.588435496466, -7.932942576340224)">
		<path fill="#46616A" d="M2053.1,757.7l-9-7.5c0,0-187.3,399-221.8,433.5s-78.3,25.5-78.3-64.5c0-120.3,0-256.8,0-392&#10;&#9;&#9;&#9;c0-83.7,31-177.7,62.3-251c23-53.8,141.7-317.9,141.7-317.9l-6-4.9c0,0-123,262.1-145.7,284.7s-52.4,16.7-52.4-42.4&#10;&#9;&#9;&#9;c0-225.8,0-395.7,0-395.7h-84c0,0,0,327,0,705.7c0,59.1-29.9,65-52.5,42.4c-22.7-22.7-145.9-284.7-145.9-284.7l-6,4.9&#10;&#9;&#9;&#9;c0,0,118.9,264,141.9,317.9c31.4,73.3,62.5,167.3,62.5,251c0,166.4,0,327.6,0,461.8c0,534.1-57.3,822.2-57.3,822.2h186&#10;&#9;&#9;&#9;c0,0-42.2-621.3-44.9-808.1c2.2-119.6,32.3-201.5,82.8-270.8C1879.1,1170.2,2053.1,757.7,2053.1,757.7z"/>
		<path fill="#46616A" d="M431,917c-26,6-32.3-5.2-14.8-43.7l0,0C472,749.7,524.1,626.1,524.1,626.1l-9-7.5&#10;&#9;&#9;&#9;c0,0-187.3,399-221.8,433.5c-34.5,34.5-78.3,25.5-78.3-64.5C215,550.9,215,0,215,0h-84c0,0,0,156.6,0,378.6&#10;&#9;&#9;&#9;c0,59.1-29.9,65-52.5,42.4c-11-11-45.7-78.2-78.5-144.6v28.5C29.1,370,58.3,435.2,68.5,459C99.9,532.3,131,626.3,131,710&#10;&#9;&#9;&#9;c0,270.6,0,566.9,0,788.8c0,534.1-57.3,822.2-57.3,822.2h186c0,0-44.7-663.2-44.7-825.2c0-18.8,0-53.6,0-100.2&#10;&#9;&#9;&#9;c0-127.5,30.3-213.2,82.8-285.2c15.2-20.8,40.4-69.5,68.7-129.5c0,0,0,0,0,0c4-8,18.9-33.1,40-41.1c21-8,144.6-54.9,144.6-54.9&#10;&#9;&#9;&#9;v-11.7C551,873.3,457,911,431,917z"/>
		<path fill="#46616A" d="M2665.7,917c-29.1,6-36.1-5.2-16.5-43.7c62.5-123.7,120.8-247.2,120.8-247.2l-10.1-7.5&#10;&#9;&#9;&#9;c0,0-209.7,399-248.3,433.5c-38.6,34.5-87.6,25.5-87.6-64.5c0-436.7,0-987.6,0-987.6h-95c0,0,0,156.6,0,378.6&#10;&#9;&#9;&#9;c0,59.1-33,65-58.4,42.4s-163.1-284.7-163.1-284.7l-6.6,4.9c0,0,40.8,81,81.5,162.4c12.9,25.3,6,32.6-13.1,28.7&#10;&#9;&#9;&#9;c-19.1-3.9-88.3-28.7-88.3-28.7v7.7c0,0,91,30.9,106.5,36.1c15.5,5.3,29.2,25.1,32.1,30.6c18,36.2,32.8,66.4,39.8,81.1&#10;&#9;&#9;&#9;c35.1,73.3,69.6,167.3,69.6,251c0,201.5,0,417.3,0,606c0,90-49.3,99-88,64.5S1992.6,947,1992.6,947l-10,7.6&#10;&#9;&#9;&#9;c0,0,61.1,121.4,124.5,244.4h0c19.6,38,9.1,52.5-20,46.5s-134.1-43.8-134.1-43.8v11.7c0,0,138.2,47,161.7,55s49.9,40.4,54.3,48.8&#10;&#9;&#9;&#9;c0,0,0,0,0,0c28.9,54.7,53.7,100.1,67.3,121.8c49.3,78.8,88.1,172,88.1,299.5l0.7-1.8c-14.4,381.2-59.4,584.3-59.4,584.3h208.2&#10;&#9;&#9;&#9;c0,0-49.9-663.2-49.9-825.2c0-18.8,0-53.6,0-100.2c0-127.5,33.8-213.2,92.6-285.2c17-20.8,45.2-69.5,76.8-129.5h-0.1&#10;&#9;&#9;&#9;c4.5-8,21.2-33.1,44.7-41.1S2800,885,2800,885v-11.7C2800,873.3,2694.8,911,2665.7,917z"/>
		<g>
			<path fill="#46616A" d="M961.2,498.5L961.2,498.5c-3.7-83.7,23.4-177.7,51.5-251c13.8-35.9,66-165.3,99.3-247.5h-10.2&#10;&#9;&#9;&#9;&#9;c-34.8,79.3-86.7,194.8-100.8,209.5c-21.7,22.7-51.8,16.7-54.4-42.4h0C942.2,64.6,939.4,0,939.4,0h-84c0,0,9.7,222,22.4,512&#10;&#9;&#9;&#9;&#9;c2.6,59.1-26.9,65-50.5,42.4C803.6,531.7,669,269.6,669,269.6l-5.7,4.9c0,0,130.3,264,155.6,317.9c34.6,73.3,69.7,167.3,73.3,251&#10;&#9;&#9;&#9;&#9;c8,182.7,16.2,369.5,23.3,531.6c0.7,16.4-2.3,42.5-25.8,25c-23.5-17.5-111.5-81.5-111.5-81.5l-4.5,6.5c0,0,143.9,99,146.2,151.9&#10;&#9;&#9;&#9;&#9;c0.3,7.4,0.6,14.7,1,21.9c23.4,534.1-29.8,822.2-29.8,822.2h186c0,0-65.2-663.2-72.3-825.2&#10;&#9;&#9;&#9;&#9;C1000.6,1400.1,978.6,895.5,961.2,498.5z"/>
		</g>
	</g></svg>